<svg id="Layer_1" data-name="Layer 1" xmlns="http://www.w3.org/2000/svg" viewBox="0 0 500 100"><defs><style>.cls-1{fill:#b026ff;}</style></defs><title>Artboard 1</title><g id="Final"><path d="M98.74,2.31V55h-10A42.69,42.69,0,0,0,46.05,12.31h0v-10Z"/><path d="M88.73,55A42.69,42.69,0,1,1,46,12.31V55Z"/><path class="cls-1" d="M88.73,55H46V12.31A42.69,42.69,0,0,1,88.73,55Z"/><path d="M162.47,58.61A21.36,21.36,0,0,1,153.55,68a26.5,26.5,0,0,1-12.65,3,24.1,24.1,0,0,1-12.57-3.42,24.36,24.36,0,0,1-9.11-9.8A31.08,31.08,0,0,1,115.84,43a32.33,32.33,0,0,1,3.38-15.15,24.42,24.42,0,0,1,9.11-10,23.82,23.82,0,0,1,12.57-3.5,25,25,0,0,1,15.84,5q6.49,5.06,8.24,14.7h-7.67Q154.31,22,140.9,22q-8.06,0-12.72,5.51T123.51,43a25.49,25.49,0,0,0,2.12,10.75,16.26,16.26,0,0,0,6.08,7.1,18.61,18.61,0,0,0,20.09-.91q4.29-3.42,5.58-10.56H139.76V42.12h26.13Q165.82,52.16,162.47,58.61Z"/><path d="M192.31,30.85a7.89,7.89,0,0,1,2.44.95v7.52a10.05,10.05,0,0,0-2.66-1.18,11.66,11.66,0,0,0-3-.34,11,11,0,0,0-7.86,2.73q-2.92,2.74-2.92,8.28V70.46h-7.22V30.58h7.22v9.73a14.93,14.93,0,0,1,3.91-7.14,9.51,9.51,0,0,1,6.87-2.59A15.8,15.8,0,0,1,192.31,30.85Z"/><path d="M230.68,34.46q4.44,3.87,4.44,12.45V70.46H227.9V60.21q-1.29,6.08-4.82,8.54a14.76,14.76,0,0,1-8.7,2.47,17.84,17.84,0,0,1-7.17-1.44,12.67,12.67,0,0,1-5.36-4.33,11.84,11.84,0,0,1-2-7.07q0-6.15,4.22-9.42a16.42,16.42,0,0,1,10.36-3.26H227.9q-.3-4.41-2.58-6.15t-6.76-1.75q-9.57,0-9.57,6.68h-7.21q0-6.9,4.63-10.4t12.15-3.5Q226.24,30.58,230.68,34.46Zm-6.57,26.62q3.79-2.85,3.79-8.92H214.38a8.43,8.43,0,0,0-5.5,1.55A5.59,5.59,0,0,0,207,58.23q0,5.7,7.36,5.7a15.77,15.77,0,0,0,9.75-2.85Z"/><path d="M272.89,32.22a16.53,16.53,0,0,1,6.61,7,24,24,0,0,1,2.39,11.09A24,24,0,0,1,279.5,61.4a16.71,16.71,0,0,1-6.61,7,19,19,0,0,1-9.53,2.39A15.72,15.72,0,0,1,255.61,69a13.54,13.54,0,0,1-5.24-5.32v22h-7.22V30.58h7.22v6.23q3.94-7,13-7A18.89,18.89,0,0,1,272.89,32.22Zm-1.41,27.84q3.27-3.57,3.27-9.73t-3.27-9.72A11,11,0,0,0,263,37q-12.62,0-12.61,13.29T263,63.62A11,11,0,0,0,271.48,60.06Z"/><path d="M306,64a12.85,12.85,0,0,0,7.26-1.78,8.56,8.56,0,0,0,3.45-5.36H324a16.35,16.35,0,0,1-3,7.22,16.69,16.69,0,0,1-6.23,5.2A19.28,19.28,0,0,1,306,71.22a18.77,18.77,0,0,1-10.18-2.66,17.17,17.17,0,0,1-6.49-7.37,24.73,24.73,0,0,1-2.24-10.71,24.39,24.39,0,0,1,2.24-10.67,17.31,17.31,0,0,1,6.49-7.33A18.86,18.86,0,0,1,306,29.82q8.5,0,13.56,6t5.05,17.7H294.49Q295.71,64,306,64Zm11.24-16.33q-.53-5.93-3.45-8.31A11.92,11.92,0,0,0,306,37q-10.41,0-11.54,10.71Z"/><path d="M376.69,30.58h7.21L372.66,70.46h-9.49l-7.22-27-7.22,27h-9.49L328.15,30.58h7.22L343,59.68l.68,1.82,8.81-30.92h6.84l8.81,30.84.61-1.74Z"/><path d="M418.07,34.46q4.44,3.87,4.44,12.45V70.46H415.3V60.21q-1.29,6.08-4.83,8.54a14.75,14.75,0,0,1-8.69,2.47,17.89,17.89,0,0,1-7.18-1.44,12.67,12.67,0,0,1-5.36-4.33,12,12,0,0,1-2.05-7.07q0-6.15,4.22-9.42a16.45,16.45,0,0,1,10.37-3.26H415.3c-.21-2.94-1.08-5-2.59-6.15S408.94,37.8,406,37.8q-9.57,0-9.57,6.68h-7.21q0-6.9,4.63-10.4t12.2-3.5Q413.64,30.58,418.07,34.46ZM411.5,61.08q3.79-2.85,3.8-8.92H401.78a8.46,8.46,0,0,0-5.51,1.55,5.58,5.58,0,0,0-1.86,4.52q0,5.7,7.37,5.7A15.75,15.75,0,0,0,411.5,61.08Z"/><path d="M452.05,30.85a7.84,7.84,0,0,1,2.43.95v7.52a9.91,9.91,0,0,0-2.66-1.18,11.24,11.24,0,0,0-3-.34A11,11,0,0,0,441,40.53q-2.92,2.74-2.92,8.28V70.46h-7.22V30.58h7.22v9.73A14.94,14.94,0,0,1,442,33.17a9.51,9.51,0,0,1,6.87-2.59A15.41,15.41,0,0,1,452.05,30.85Z"/><path d="M478.05,64a12.81,12.81,0,0,0,7.25-1.78,8.54,8.54,0,0,0,3.46-5.36h7.29a16.58,16.58,0,0,1-3,7.22,16.78,16.78,0,0,1-6.23,5.2A19.31,19.31,0,0,1,478,71.22a18.77,18.77,0,0,1-10.18-2.66,17.12,17.12,0,0,1-6.5-7.37,24.73,24.73,0,0,1-2.24-10.71,24.39,24.39,0,0,1,2.24-10.67,17.33,17.33,0,0,1,6.5-7.33A18.77,18.77,0,0,1,478,29.82q8.5,0,13.55,6t5,17.7H466.5Q467.72,64,478.05,64Zm11.24-16.33q-.54-5.93-3.46-8.31a11.89,11.89,0,0,0-7.78-2.4q-10.41,0-11.55,10.71Z"/></g></svg>